<?xml version="1.0" encoding="utf-8"?>
<!-- Generator: Adobe Illustrator 26.5.0, SVG Export Plug-In . SVG Version: 6.00 Build 0)  -->
<svg version="1.1" xmlns="http://www.w3.org/2000/svg" xmlns:xlink="http://www.w3.org/1999/xlink" x="0px" y="0px"
	 viewBox="0 0 593.44 593.44" style="enable-background:new 0 0 593.44 593.44;" xml:space="preserve">
<style type="text/css">
	.st0{fill:#FFFFFF;}
	.st1{fill:#E60019;}
</style>
<g id="Layer_1">
	<rect class="st0" width="593.44" height="593.44"/>
</g>
<g id="Layer_2">
	<g>
		<path class="st1" d="M176.43,336.69c35.46,0,65.58-19.47,71.07-23.01c3.81,6.64,18.89,23.01,51.52,23.01
			c25.83,0,54.5-12.85,64.07-19.04c5.86,7.84,17.85,19.08,54.43,19.08c24.18,0,39.51-8.39,49.11-19.92
			c0.18,6.07,0.4,11.99,0.68,16.54l14.64,2.26c-0.49-15.25-0.09-68.13-0.09-68.94c0-66.4-50.49-71.1-61.07-71.1
			c-16.41,0-32.26,3.41-48.93,9.98l-1.18,17.5c6.49-3.04,27.27-11.97,47.99-11.97c16.31,0,28.88,5.47,37.38,16.27
			c-56.13,29.53-89.62,53.27-94.68,72.97c-14.37,9.71-39.69,20.92-62.21,20.92c-24.01,0-34.32-10.37-38.82-16.38
			c61.6-41.44,93.52-65.35,89.61-84.22c-3.52-17.03-28.82-25.02-51.49-25.02c-23.2,0-39.13,10.01-46.68,17.79
			c-12.13,12.51-17.9,31.04-17.16,55.08c0.33,10.51,2.39,21.47,5.89,31.08c-9.45,6.14-35.18,21.7-64.73,21.7
			c-35.1,0-49.54-27.43-49.54-55.1c0-26.83,13.49-55.13,49.54-55.13c20.27,0,40.64,8.56,47.57,11.78l-1.17-17.46
			c-13.09-5.11-30.32-9.74-45.22-9.74c-59.69,0-64.61,50.1-64.34,70.52C112.36,286.59,117.82,336.69,176.43,336.69z M463.12,240.47
			c1.91,4.79,3.51,10.97,4.49,16.77c0.05,0.31,4.09,31.36-12.46,50.33c-8.57,9.82-21.44,14.13-37.82,14.27
			c-37.33,0.32-40.96-13.83-40.96-13.83C372.51,299.33,385.11,281.82,463.12,240.47z M261.33,224.75
			c8.57-9.82,21.22-14.8,37.59-14.8c17.65,0,32.45,6.15,33.98,13.22c1.14,5.29-3.86,12.07-26.67,30.34
			c-0.24,0.2-23.29,19.76-53.06,37.42c-1.88-4.76-3.33-10.1-4.31-15.85C248.82,274.78,244.79,243.72,261.33,224.75z"/>
		<rect x="127.13" y="383.03" class="st1" width="340.31" height="14.48"/>
	</g>
</g>
</svg>
