<?xml version="1.0" encoding="UTF-8" standalone="no"?>
<!DOCTYPE svg PUBLIC "-//W3C//DTD SVG 1.1//EN"
 "http://www.w3.org/Graphics/SVG/1.1/DTD/svg11.dtd">
<!-- Generated by graphviz version 2.43.0 (0)
 -->
<!-- Title: G Pages: 1 -->
<svg width="563pt" height="348pt"
 viewBox="0.00 0.00 563.00 348.00" xmlns="http://www.w3.org/2000/svg" xmlns:xlink="http://www.w3.org/1999/xlink">
<g id="graph0" class="graph" transform="scale(1 1) rotate(0) translate(4 344)">
<title>G</title>
<g id="clust1" class="cluster">
<title>cluster_runtime</title>
<path fill="transparent" stroke="black" d="M153,-8C153,-8 264,-8 264,-8 270,-8 276,-14 276,-20 276,-20 276,-71 276,-71 276,-77 270,-83 264,-83 264,-83 153,-83 153,-83 147,-83 141,-77 141,-71 141,-71 141,-20 141,-20 141,-14 147,-8 153,-8"/>
<text text-anchor="middle" x="208.5" y="-67.8" font-family="Times,serif" font-size="14.00">Runtime System</text>
</g>
<g id="clust2" class="cluster">
<title>cluster_graph</title>
<path fill="transparent" stroke="black" d="M416,-91C416,-91 535,-91 535,-91 541,-91 547,-97 547,-103 547,-103 547,-154 547,-154 547,-160 541,-166 535,-166 535,-166 416,-166 416,-166 410,-166 404,-160 404,-154 404,-154 404,-103 404,-103 404,-97 410,-91 416,-91"/>
<text text-anchor="middle" x="475.5" y="-150.8" font-family="Times,serif" font-size="14.00">Graph Processing</text>
</g>
<g id="clust3" class="cluster">
<title>cluster_densesolver</title>
<path fill="transparent" stroke="black" d="M158,-91C158,-91 289,-91 289,-91 295,-91 301,-97 301,-103 301,-103 301,-154 301,-154 301,-160 295,-166 289,-166 289,-166 158,-166 158,-166 152,-166 146,-160 146,-154 146,-154 146,-103 146,-103 146,-97 152,-91 158,-91"/>
<text text-anchor="middle" x="223.5" y="-150.8" font-family="Times,serif" font-size="14.00">Dense linear solver</text>
</g>
<g id="clust4" class="cluster">
<title>cluster_randomizedsolver</title>
<path fill="transparent" stroke="black" d="M20,-174C20,-174 151,-174 151,-174 157,-174 163,-180 163,-186 163,-186 163,-237 163,-237 163,-243 157,-249 151,-249 151,-249 20,-249 20,-249 14,-249 8,-243 8,-237 8,-237 8,-186 8,-186 8,-180 14,-174 20,-174"/>
<text text-anchor="middle" x="85.5" y="-233.8" font-family="Times,serif" font-size="14.00">Randomized E|SVD</text>
</g>
<g id="clust5" class="cluster">
<title>cluster_mvasolver</title>
<path fill="transparent" stroke="black" d="M94,-257C94,-257 239,-257 239,-257 245,-257 251,-263 251,-269 251,-269 251,-320 251,-320 251,-326 245,-332 239,-332 239,-332 94,-332 94,-332 88,-332 82,-326 82,-320 82,-320 82,-269 82,-269 82,-263 88,-257 94,-257"/>
<text text-anchor="middle" x="166.5" y="-316.8" font-family="Times,serif" font-size="14.00">Multivariate Analysis</text>
</g>
<g id="clust6" class="cluster">
<title>cluster_sparsedirectsolver</title>
<path fill="transparent" stroke="black" d="M326,-174C326,-174 504,-174 504,-174 510,-174 516,-180 516,-186 516,-186 516,-237 516,-237 516,-243 510,-249 504,-249 504,-249 326,-249 326,-249 320,-249 314,-243 314,-237 314,-237 314,-186 314,-186 314,-180 320,-174 326,-174"/>
<text text-anchor="middle" x="415" y="-233.8" font-family="Times,serif" font-size="14.00">Sparse direct solvers</text>
</g>
<g id="clust7" class="cluster">
<title>cluster_iterativesolver</title>
<path fill="transparent" stroke="black" d="M214,-174C214,-174 294,-174 294,-174 300,-174 306,-180 306,-186 306,-186 306,-237 306,-237 306,-243 300,-249 294,-249 294,-249 214,-249 214,-249 208,-249 202,-243 202,-237 202,-237 202,-186 202,-186 202,-180 208,-174 214,-174"/>
<text text-anchor="middle" x="254" y="-233.8" font-family="Times,serif" font-size="14.00">Iterative</text>
</g>
<g id="clust8" class="cluster">
<title>cluster_sparsehybridsolver</title>
<path fill="transparent" stroke="black" d="M298,-257C298,-257 453,-257 453,-257 459,-257 465,-263 465,-269 465,-269 465,-320 465,-320 465,-326 459,-332 453,-332 453,-332 298,-332 298,-332 292,-332 286,-326 286,-320 286,-320 286,-269 286,-269 286,-263 292,-257 298,-257"/>
<text text-anchor="middle" x="375.5" y="-316.8" font-family="Times,serif" font-size="14.00">Sparse hybrid solver &#160;&#160;</text>
</g>
<!-- starpu -->
<g id="node1" class="node">
<title>starpu</title>
<polygon fill="none" stroke="#7fff00" stroke-width="2" points="244,-52 172,-52 172,-16 244,-16 244,-52"/>
<text text-anchor="start" x="180" y="-31.3" font-family="Times,serif" font-weight="bold" font-size="14.00">StarPU</text>
</g>
<!-- scotch -->
<g id="node2" class="node">
<title>scotch</title>
<polygon fill="none" stroke="#c1ffc1" stroke-width="2" points="492.5,-135 423.5,-135 423.5,-99 492.5,-99 492.5,-135"/>
<text text-anchor="start" x="431.5" y="-114.3" font-family="Times,serif" font-weight="bold" font-size="14.00">Scotch</text>
</g>
<!-- chameleon -->
<g id="node3" class="node">
<title>chameleon</title>
<polygon fill="none" stroke="#98f5ff" stroke-width="2" points="260.5,-135 155.5,-135 155.5,-99 260.5,-99 260.5,-135"/>
<text text-anchor="start" x="163.5" y="-114.3" font-family="Times,serif" font-weight="bold" font-size="14.00">Chameleon</text>
</g>
<!-- chameleon&#45;&gt;starpu -->
<g id="edge1" class="edge">
<title>chameleon&#45;&gt;starpu</title>
<path fill="none" stroke="black" d="M208,-98.82C208,-97.03 208,-95.15 208,-93.2"/>
<polygon fill="black" stroke="black" points="211.5,-93 208,-83 204.5,-93 211.5,-93"/>
</g>
<!-- fmr -->
<g id="node4" class="node">
<title>fmr</title>
<polygon fill="none" stroke="#a4d3ee" stroke-width="2" points="154,-218 100,-218 100,-182 154,-182 154,-218"/>
<text text-anchor="start" x="108" y="-197.3" font-family="Times,serif" font-weight="bold" font-size="14.00">FMR</text>
</g>
<!-- fmr&#45;&gt;starpu -->
<g id="edge3" class="edge">
<title>fmr&#45;&gt;starpu</title>
<path fill="none" stroke="black" d="M125.57,-174C125.41,-153.08 127.85,-122.26 142.3,-92.11"/>
<polygon fill="black" stroke="black" points="145.53,-93.48 147.06,-83 139.33,-90.24 145.53,-93.48"/>
</g>
<!-- fmr&#45;&gt;chameleon -->
<g id="edge2" class="edge">
<title>fmr&#45;&gt;chameleon</title>
<path fill="none" stroke="black" d="M152,-174C152.25,-173.75 152.51,-173.49 152.77,-173.23"/>
<polygon fill="black" stroke="black" points="155.41,-175.54 160,-166 150.46,-170.59 155.41,-175.54"/>
</g>
<!-- diodon -->
<g id="node5" class="node">
<title>diodon</title>
<polygon fill="none" stroke="#8470ff" stroke-width="2" points="211.5,-301 110.5,-301 110.5,-265 211.5,-265 211.5,-301"/>
<text text-anchor="start" x="118.5" y="-280.3" font-family="Times,serif" font-weight="bold" font-size="14.00">Cppdiodon</text>
</g>
<!-- diodon&#45;&gt;chameleon -->
<g id="edge5" class="edge">
<title>diodon&#45;&gt;chameleon</title>
<path fill="none" stroke="black" d="M168.16,-257C174.32,-235.53 183.43,-203.73 191.39,-175.97"/>
<polygon fill="black" stroke="black" points="194.85,-176.58 194.24,-166 188.12,-174.65 194.85,-176.58"/>
</g>
<!-- diodon&#45;&gt;fmr -->
<g id="edge4" class="edge">
<title>diodon&#45;&gt;fmr</title>
<path fill="none" stroke="black" d="M151.02,-257C150.05,-255 149.08,-253 148.11,-251"/>
<polygon fill="black" stroke="black" points="154.65,-256.47 147.15,-249 148.35,-259.52 154.65,-256.47"/>
</g>
<!-- qrm -->
<g id="node6" class="node">
<title>qrm</title>
<polygon fill="none" stroke="aquamarine" stroke-width="2" points="507.5,-218 408.5,-218 408.5,-182 507.5,-182 507.5,-218"/>
<text text-anchor="start" x="416.5" y="-197.3" font-family="Times,serif" font-weight="bold" font-size="14.00">qr_mumps</text>
</g>
<!-- qrm&#45;&gt;starpu -->
<g id="edge6" class="edge">
<title>qrm&#45;&gt;starpu</title>
<path fill="none" stroke="black" d="M412.52,-174C408.23,-171.39 404,-168.69 400,-166 355.38,-135.95 349.52,-121.19 305,-91 298.53,-86.61 291.7,-82.22 284.79,-77.94"/>
<polygon fill="black" stroke="black" points="286.36,-74.8 276,-72.58 282.71,-80.77 286.36,-74.8"/>
</g>
<!-- qrm&#45;&gt;scotch -->
<g id="edge7" class="edge">
<title>qrm&#45;&gt;scotch</title>
<path fill="none" stroke="black" d="M458,-174C458,-172 458,-170 458,-168"/>
<polygon fill="black" stroke="black" points="461.5,-176 458,-166 454.5,-176 461.5,-176"/>
</g>
<!-- pastix -->
<g id="node7" class="node">
<title>pastix</title>
<polygon fill="none" stroke="aquamarine" stroke-width="2" points="390,-218 322,-218 322,-182 390,-182 390,-218"/>
<text text-anchor="start" x="330" y="-197.3" font-family="Times,serif" font-weight="bold" font-size="14.00">PaStiX</text>
</g>
<!-- fabulous -->
<g id="node8" class="node">
<title>fabulous</title>
<polygon fill="none" stroke="deepskyblue" stroke-width="2" points="298,-218 210,-218 210,-182 298,-182 298,-218"/>
<text text-anchor="start" x="218" y="-197.3" font-family="Times,serif" font-weight="bold" font-size="14.00">Fabulous</text>
</g>
<!-- fabulous&#45;&gt;chameleon -->
<g id="edge8" class="edge">
<title>fabulous&#45;&gt;chameleon</title>
<path fill="none" stroke="black" d="M240.22,-174C238.98,-172 237.74,-170 236.5,-168"/>
<polygon fill="black" stroke="black" points="243.5,-172.66 235.26,-166 237.55,-176.34 243.5,-172.66"/>
</g>
<!-- composyx -->
<g id="node9" class="node">
<title>composyx</title>
<polygon fill="none" stroke="#ff6eb4" stroke-width="2" points="403.5,-301 308.5,-301 308.5,-265 403.5,-265 403.5,-301"/>
<text text-anchor="start" x="316.5" y="-280.3" font-family="Times,serif" font-weight="bold" font-size="14.00">Composyx</text>
</g>
<!-- composyx&#45;&gt;qrm -->
<g id="edge11" class="edge">
<title>composyx&#45;&gt;qrm</title>
<path fill="none" stroke="black" d="M388.78,-257C389.52,-256.43 390.26,-255.85 390.99,-255.28"/>
<polygon fill="black" stroke="black" points="393.29,-257.92 399,-249 388.97,-252.42 393.29,-257.92"/>
</g>
<!-- composyx&#45;&gt;pastix -->
<g id="edge10" class="edge">
<title>composyx&#45;&gt;pastix</title>
<path fill="none" stroke="black" d="M356,-257C356,-255 356,-253 356,-251"/>
<polygon fill="black" stroke="black" points="359.5,-259 356,-249 352.5,-259 359.5,-259"/>
</g>
<!-- composyx&#45;&gt;fabulous -->
<g id="edge9" class="edge">
<title>composyx&#45;&gt;fabulous</title>
<path fill="none" stroke="black" d="M320.53,-257C318.48,-255.47 316.3,-253.82 313.97,-252.03"/>
<polygon fill="black" stroke="black" points="316.04,-249.21 306,-245.83 311.74,-254.73 316.04,-249.21"/>
</g>
</g>
</svg>
